<?xml version="1.0" encoding="iso-8859-1"?>
<!-- Generator: Adobe Illustrator 19.0.0, SVG Export Plug-In . SVG Version: 6.00 Build 0)  -->
<svg version="1.1" id="Capa_1" xmlns="http://www.w3.org/2000/svg" xmlns:xlink="http://www.w3.org/1999/xlink" x="0px" y="0px"
	 viewBox="0 0 398.848 398.848" style="enable-background:new 0 0 398.848 398.848;" xml:space="preserve">
<g>
	<g>
		<path d="M262.144,224.256h-125.44c-3.072,0-5.12,2.048-5.12,5.12c0,3.072,2.048,5.12,5.12,5.12h124.928
			c3.072,0,5.12-2.048,5.12-5.12C267.264,226.816,264.704,224.256,262.144,224.256z"/>
	</g>
</g>
<g>
	<g>
		<path d="M262.144,252.416h-125.44c-3.072,0-5.12,2.048-5.12,5.12c0,3.072,2.048,5.12,5.12,5.12h124.928
			c3.072,0,5.12-2.048,5.12-5.12C267.264,254.976,264.704,252.416,262.144,252.416z"/>
	</g>
</g>
<g>
	<g>
		<path d="M262.144,281.088h-125.44c-3.072,0-5.12,2.048-5.12,5.12c0,3.072,2.048,5.12,5.12,5.12h124.928
			c3.072,0,5.12-2.048,5.12-5.12C267.264,283.136,264.704,281.088,262.144,281.088z"/>
	</g>
</g>
<g>
	<g>
		<circle cx="199.168" cy="27.648" r="6.144"/>
	</g>
</g>
<g>
	<g>
		<path d="M333.312,40.96h-71.168v-4.608c0-3.072-2.048-5.12-5.12-5.12h-28.672v-2.048c0-15.872-12.8-29.184-29.184-29.184
			c-15.872,0-29.184,12.8-29.184,29.184v2.048h-28.672c-3.072,0-5.12,2.048-5.12,5.12v4.608H65.536c-3.072,0-5.12,2.048-5.12,5.12
			v347.648c0,3.072,2.048,5.12,5.12,5.12h267.776c3.072,0,5.12-2.048,5.12-5.12V46.08C338.432,43.52,335.872,40.96,333.312,40.96z
			 M146.944,41.472h28.672c3.072,0,5.12-2.048,5.12-5.12v-7.168c0-10.24,8.192-18.944,18.944-18.944
			c10.24,0,18.944,8.192,18.944,18.944v7.168c0,3.072,2.048,5.12,5.12,5.12h28.672v24.064H146.944V41.472z M103.936,51.2h32.768
			v19.456c0,3.072,2.048,5.12,5.12,5.12h114.688c3.072,0,5.12-2.048,5.12-5.12V51.2h33.28v304.128H103.936V51.2z M328.192,388.608
			H70.656V51.2h23.04v309.248c0,3.072,2.048,5.12,5.12,5.12h201.216c3.072,0,5.12-2.048,5.12-5.12V51.2h23.04V388.608z"/>
	</g>
</g>
<g>
	<g>
		<path d="M225.28,115.712c-9.728-3.584-19.456-1.536-26.624,6.144c-7.168-7.68-16.896-9.728-26.624-6.144
			c-10.752,4.096-19.968,16.384-16.384,33.792c6.656,27.648,39.936,41.472,41.472,42.496c0.512,0.512,1.536,0.512,2.048,0.512
			c0.512,0,1.536,0,2.048-0.512c1.536-0.512,34.304-14.848,40.448-42.496C245.76,132.096,236.032,119.808,225.28,115.712z
			 M231.936,146.944c-4.096,18.944-26.112,30.72-32.768,34.304c-6.656-3.072-28.16-15.36-32.768-34.304
			c-2.56-11.264,3.584-19.456,9.728-22.016c1.536-0.512,3.584-1.024,5.12-1.024c5.12,0,9.728,3.072,13.312,8.704
			c2.048,3.072,7.168,3.072,8.704,0c4.608-7.68,11.264-10.24,18.432-7.68C228.352,127.488,234.496,135.68,231.936,146.944z"/>
	</g>
</g>
<g>
</g>
<g>
</g>
<g>
</g>
<g>
</g>
<g>
</g>
<g>
</g>
<g>
</g>
<g>
</g>
<g>
</g>
<g>
</g>
<g>
</g>
<g>
</g>
<g>
</g>
<g>
</g>
<g>
</g>
</svg>
