<?xml version="1.0" encoding="iso-8859-1"?>
<!-- Generator: Adobe Illustrator 19.0.0, SVG Export Plug-In . SVG Version: 6.00 Build 0)  -->
<svg version="1.1" id="Layer_1" xmlns="http://www.w3.org/2000/svg" xmlns:xlink="http://www.w3.org/1999/xlink" x="0px" y="0px"
	 viewBox="0 0 318.188 318.188" style="enable-background:new 0 0 318.188 318.188;" xml:space="preserve">
<g>
	<polygon style="fill:#E4E4E4;" points="227.321,7.5 40.342,7.5 40.342,310.688 277.846,310.688 277.846,58.025 	"/>
	<polygon style="fill:#007934;" points="235.14,32.763 40.342,32.763 40.342,7.5 227.321,7.5 	"/>
	<polygon style="fill:#D1D3D3;" points="227.321,58.025 277.846,58.025 227.321,7.5 	"/>
	<g>
		<rect x="142.457" y="87.844" style="fill:#007934;" width="33.274" height="15.418"/>
		<rect x="183.102" y="87.844" style="fill:#007934;" width="33.273" height="15.418"/>
		<rect x="142.457" y="110.161" style="fill:#007934;" width="33.274" height="15.419"/>
		<rect x="183.102" y="110.161" style="fill:#007934;" width="33.273" height="15.419"/>
		<rect x="142.457" y="132.479" style="fill:#007934;" width="33.274" height="15.418"/>
		<rect x="183.102" y="132.479" style="fill:#007934;" width="33.273" height="15.418"/>
		<rect x="101.812" y="132.479" style="fill:#007934;" width="33.273" height="15.418"/>
		<rect x="142.457" y="154.798" style="fill:#007934;" width="33.274" height="15.418"/>
		<rect x="183.102" y="154.798" style="fill:#007934;" width="33.273" height="15.418"/>
		<rect x="101.812" y="154.798" style="fill:#007934;" width="33.273" height="15.418"/>
		<g>
			<path style="fill:#007934;" d="M134.588,123.662h-10.041l-6.262-10.041l-6.196,10.041h-9.821l10.656-16.435L102.906,91.54h9.624
				l5.8,9.932l5.581-9.932h9.909l-10.173,16.369L134.588,123.662z"/>
		</g>
	</g>
	<path style="fill:#333E48;" d="M283.149,52.723L232.625,2.197C231.218,0.79,229.311,0,227.321,0H40.342c-4.142,0-7.5,3.358-7.5,7.5
		v303.188c0,4.143,3.358,7.5,7.5,7.5h237.504c4.142,0,7.5-3.357,7.5-7.5V58.025C285.346,56.036,284.556,54.129,283.149,52.723z
		 M234.821,25.606l24.918,24.919h-24.918L234.821,25.606L234.821,25.606z M47.842,15h171.979v10.263H47.842V15z M270.346,303.188
		H47.842V40.263h171.979v17.763c0,4.143,3.358,7.5,7.5,7.5h43.024v237.662H270.346z M122.372,235.484
		c1.969,0,3.809,0.275,5.523,0.826c1.713,0.55,3.428,1.227,5.141,2.031l3.841-9.871c-4.57-2.18-9.362-3.27-14.378-3.27
		c-4.591,0-8.585,0.979-11.98,2.937c-3.396,1.957-5.999,4.755-7.808,8.395c-1.81,3.64-2.714,7.86-2.714,12.663
		c0,7.682,1.867,13.553,5.602,17.615s9.104,6.094,16.107,6.094c4.888,0,9.268-0.857,13.14-2.57v-10.602
		c-1.947,0.805-3.883,1.492-5.808,2.063c-1.926,0.571-3.915,0.856-5.967,0.856c-6.793,0-10.188-4.464-10.188-13.393
		c0-4.295,0.836-7.665,2.507-10.109C117.062,236.707,119.39,235.484,122.372,235.484z M155.603,236.088
		c0.74-0.571,1.925-0.857,3.555-0.857c3.152,0,6.897,0.995,11.234,2.984l3.841-9.681c-4.994-2.222-9.892-3.333-14.694-3.333
		c-5.438,0-9.713,1.196-12.822,3.587c-3.111,2.392-4.666,5.724-4.666,9.997c0,2.285,0.365,4.264,1.095,5.936
		s1.852,3.152,3.364,4.443s3.782,2.624,6.809,3.999c3.343,1.503,5.4,2.497,6.173,2.983c0.771,0.486,1.333,0.968,1.682,1.444
		c0.35,0.476,0.524,1.031,0.524,1.666c0,1.016-0.435,1.847-1.302,2.491c-0.868,0.646-2.232,0.969-4.095,0.969
		c-2.158,0-4.527-0.344-7.109-1.032c-2.581-0.687-5.067-1.645-7.458-2.872v11.172c2.264,1.079,4.443,1.836,6.538,2.27
		s4.687,0.65,7.775,0.65c3.703,0,6.93-0.619,9.681-1.856c2.75-1.238,4.856-2.973,6.315-5.205c1.461-2.232,2.19-4.787,2.19-7.665
		c0-3.131-0.777-5.729-2.333-7.792c-1.555-2.063-4.332-3.993-8.331-5.792c-4.169-1.904-6.724-3.216-7.665-3.936
		c-0.941-0.719-1.412-1.533-1.412-2.443C154.491,237.368,154.861,236.659,155.603,236.088z M201.021,249.514
		c-0.339,1.27-0.73,3.015-1.174,5.236c-0.445,2.222-0.741,4.073-0.889,5.555c-0.127-2.053-0.847-5.691-2.158-10.918l-6.316-23.519
		h-14.092l15.139,46.401h14.759l15.202-46.401h-14.027L201.021,249.514z"/>
</g>
<g>
</g>
<g>
</g>
<g>
</g>
<g>
</g>
<g>
</g>
<g>
</g>
<g>
</g>
<g>
</g>
<g>
</g>
<g>
</g>
<g>
</g>
<g>
</g>
<g>
</g>
<g>
</g>
<g>
</g>
</svg>
